<mxfile host="app.diagrams.net" modified="2020-12-02T00:29:27.123Z" agent="5.0 (Windows)" etag="k-EPDM6Bdf58Hwhn27O0" version="13.10.5" type="github">
  <diagram id="-qVlLc70IEuDWjzu_blk" name="Page-1">
    <mxGraphModel dx="1424" dy="782" grid="1" gridSize="10" guides="1" tooltips="1" connect="1" arrows="1" fold="1" page="1" pageScale="1" pageWidth="850" pageHeight="1100" math="0" shadow="0">
      <root>
        <mxCell id="0" />
        <mxCell id="1" parent="0" />
        <mxCell id="04Kezkw_sL0QjhpN1KRG-1" value="" style="shape=ellipse;html=1;fillColor=#000000;strokeWidth=2;verticalLabelPosition=bottom;verticalAlignment=top;perimeter=ellipsePerimeter;" vertex="1" parent="1">
          <mxGeometry x="80" y="280" width="40" height="40" as="geometry" />
        </mxCell>
        <mxCell id="04Kezkw_sL0QjhpN1KRG-2" value="" style="html=1;shape=mxgraph.sysml.actFinal;strokeWidth=2;verticalLabelPosition=bottom;verticalAlignment=top;" vertex="1" parent="1">
          <mxGeometry x="400" y="800" width="40" height="40" as="geometry" />
        </mxCell>
        <mxCell id="04Kezkw_sL0QjhpN1KRG-3" value="" style="html=1;shape=mxgraph.sysml.flowFinal;strokeWidth=2;verticalLabelPosition=bottom;verticalAlignment=top;" vertex="1" parent="1">
          <mxGeometry x="620" y="390" width="40" height="40" as="geometry" />
        </mxCell>
        <mxCell id="04Kezkw_sL0QjhpN1KRG-4" value="" style="rhombus;whiteSpace=wrap;html=1;" vertex="1" parent="1">
          <mxGeometry x="380" y="370" width="80" height="80" as="geometry" />
        </mxCell>
        <mxCell id="04Kezkw_sL0QjhpN1KRG-8" value="" style="edgeStyle=orthogonalEdgeStyle;rounded=0;orthogonalLoop=1;jettySize=auto;html=1;" edge="1" parent="1" source="04Kezkw_sL0QjhpN1KRG-5" target="04Kezkw_sL0QjhpN1KRG-7">
          <mxGeometry relative="1" as="geometry" />
        </mxCell>
        <mxCell id="04Kezkw_sL0QjhpN1KRG-5" value="login" style="shape=rect;html=1;rounded=1;whiteSpace=wrap;align=center;" vertex="1" parent="1">
          <mxGeometry x="160" y="270" width="140" height="60" as="geometry" />
        </mxCell>
        <mxCell id="04Kezkw_sL0QjhpN1KRG-6" value="" style="endArrow=classic;html=1;exitX=1;exitY=0.5;exitDx=0;exitDy=0;entryX=0;entryY=0.5;entryDx=0;entryDy=0;" edge="1" parent="1" source="04Kezkw_sL0QjhpN1KRG-1" target="04Kezkw_sL0QjhpN1KRG-5">
          <mxGeometry width="50" height="50" relative="1" as="geometry">
            <mxPoint x="400" y="300" as="sourcePoint" />
            <mxPoint x="450" y="250" as="targetPoint" />
          </mxGeometry>
        </mxCell>
        <mxCell id="04Kezkw_sL0QjhpN1KRG-7" value="search restaruent" style="shape=rect;html=1;rounded=1;whiteSpace=wrap;align=center;" vertex="1" parent="1">
          <mxGeometry x="350" y="270" width="140" height="60" as="geometry" />
        </mxCell>
        <mxCell id="04Kezkw_sL0QjhpN1KRG-12" value="" style="edgeStyle=orthogonalEdgeStyle;rounded=0;orthogonalLoop=1;jettySize=auto;html=1;" edge="1" parent="1" source="04Kezkw_sL0QjhpN1KRG-9" target="04Kezkw_sL0QjhpN1KRG-11">
          <mxGeometry relative="1" as="geometry" />
        </mxCell>
        <mxCell id="04Kezkw_sL0QjhpN1KRG-9" value="Get Menu" style="shape=rect;html=1;rounded=1;whiteSpace=wrap;align=center;" vertex="1" parent="1">
          <mxGeometry x="350" y="500" width="140" height="60" as="geometry" />
        </mxCell>
        <mxCell id="04Kezkw_sL0QjhpN1KRG-14" value="" style="edgeStyle=orthogonalEdgeStyle;rounded=0;orthogonalLoop=1;jettySize=auto;html=1;" edge="1" parent="1" source="04Kezkw_sL0QjhpN1KRG-11" target="04Kezkw_sL0QjhpN1KRG-13">
          <mxGeometry relative="1" as="geometry" />
        </mxCell>
        <mxCell id="04Kezkw_sL0QjhpN1KRG-11" value="add Items" style="shape=rect;html=1;rounded=1;whiteSpace=wrap;align=center;" vertex="1" parent="1">
          <mxGeometry x="350" y="600" width="140" height="60" as="geometry" />
        </mxCell>
        <mxCell id="04Kezkw_sL0QjhpN1KRG-13" value="order total cost" style="shape=rect;html=1;rounded=1;whiteSpace=wrap;align=center;" vertex="1" parent="1">
          <mxGeometry x="350" y="700" width="140" height="60" as="geometry" />
        </mxCell>
        <mxCell id="04Kezkw_sL0QjhpN1KRG-20" value="" style="edgeStyle=orthogonalEdgeStyle;rounded=0;orthogonalLoop=1;jettySize=auto;html=1;exitX=1;exitY=0.5;exitDx=0;exitDy=0;entryX=0;entryY=0.5;entryDx=0;entryDy=0;entryPerimeter=0;" edge="1" parent="1" source="04Kezkw_sL0QjhpN1KRG-4" target="04Kezkw_sL0QjhpN1KRG-3">
          <mxGeometry relative="1" as="geometry">
            <mxPoint x="460" y="399.5" as="sourcePoint" />
            <mxPoint x="555" y="399.5" as="targetPoint" />
          </mxGeometry>
        </mxCell>
        <mxCell id="04Kezkw_sL0QjhpN1KRG-21" value="if restaurent is closed/not found" style="text;html=1;align=center;verticalAlign=middle;resizable=0;points=[];autosize=1;" vertex="1" parent="1">
          <mxGeometry x="440" y="380" width="190" height="20" as="geometry" />
        </mxCell>
        <mxCell id="04Kezkw_sL0QjhpN1KRG-22" value="" style="edgeStyle=orthogonalEdgeStyle;rounded=0;orthogonalLoop=1;jettySize=auto;html=1;exitX=0.5;exitY=1;exitDx=0;exitDy=0;" edge="1" parent="1" source="04Kezkw_sL0QjhpN1KRG-7">
          <mxGeometry relative="1" as="geometry">
            <mxPoint x="515" y="470" as="sourcePoint" />
            <mxPoint x="420" y="370" as="targetPoint" />
          </mxGeometry>
        </mxCell>
        <mxCell id="04Kezkw_sL0QjhpN1KRG-23" value="" style="edgeStyle=orthogonalEdgeStyle;rounded=0;orthogonalLoop=1;jettySize=auto;html=1;exitX=0.5;exitY=1;exitDx=0;exitDy=0;entryX=0.5;entryY=0;entryDx=0;entryDy=0;" edge="1" parent="1" source="04Kezkw_sL0QjhpN1KRG-4" target="04Kezkw_sL0QjhpN1KRG-9">
          <mxGeometry relative="1" as="geometry">
            <mxPoint x="435" y="570" as="sourcePoint" />
            <mxPoint x="570" y="610" as="targetPoint" />
          </mxGeometry>
        </mxCell>
        <mxCell id="04Kezkw_sL0QjhpN1KRG-24" value="if restaurent is open" style="text;html=1;align=center;verticalAlign=middle;resizable=0;points=[];autosize=1;" vertex="1" parent="1">
          <mxGeometry x="420" y="460" width="120" height="20" as="geometry" />
        </mxCell>
        <mxCell id="04Kezkw_sL0QjhpN1KRG-25" value="" style="edgeStyle=orthogonalEdgeStyle;rounded=0;orthogonalLoop=1;jettySize=auto;html=1;exitX=0.5;exitY=1;exitDx=0;exitDy=0;entryX=0.5;entryY=0;entryDx=0;entryDy=0;entryPerimeter=0;" edge="1" parent="1" source="04Kezkw_sL0QjhpN1KRG-13" target="04Kezkw_sL0QjhpN1KRG-2">
          <mxGeometry relative="1" as="geometry">
            <mxPoint x="534.5" y="810" as="sourcePoint" />
            <mxPoint x="534.5" y="850" as="targetPoint" />
          </mxGeometry>
        </mxCell>
      </root>
    </mxGraphModel>
  </diagram>
</mxfile>
